<?xml version="1.0" encoding="UTF-8" standalone="no"?>
<!DOCTYPE svg PUBLIC "-//W3C//DTD SVG 1.1//EN" "http://www.w3.org/Graphics/SVG/1.1/DTD/svg11.dtd">
<svg width="100%" height="100%" viewBox="0 0 220 60" version="1.1" xmlns="http://www.w3.org/2000/svg" xmlns:xlink="http://www.w3.org/1999/xlink" xml:space="preserve" xmlns:serif="http://www.serif.com/" style="fill-rule:evenodd;clip-rule:evenodd;stroke-linejoin:round;stroke-miterlimit:2;">
    <g transform="matrix(5.04408,0,0,2.47216,-61.9304,-17.8504)">
        <path d="M55.893,9.772C55.893,8.364 55.333,7.221 54.643,7.221L13.528,7.221C12.838,7.221 12.278,8.364 12.278,9.772L12.278,28.939C12.278,30.348 12.838,31.491 13.528,31.491L54.643,31.491C55.333,31.491 55.893,30.348 55.893,28.939L55.893,9.772Z" style="fill:rgb(244,63,94);"/>
    </g>
    <g transform="matrix(1,0,0,1,-14.0256,-7.69128)">
        <g transform="matrix(30,0,0,30,29.3754,48.6004)">
            <path d="M0.359,-0.727L0.489,-0.727L0.489,-0.216C0.489,-0.169 0.479,-0.129 0.46,-0.095C0.44,-0.061 0.412,-0.035 0.377,-0.017C0.342,0.001 0.301,0.01 0.255,0.01C0.212,0.01 0.174,0.002 0.14,-0.013C0.106,-0.028 0.079,-0.051 0.059,-0.081C0.039,-0.111 0.029,-0.148 0.029,-0.193L0.16,-0.193C0.16,-0.174 0.165,-0.157 0.173,-0.142C0.182,-0.128 0.193,-0.117 0.208,-0.11C0.223,-0.102 0.24,-0.098 0.26,-0.098C0.281,-0.098 0.299,-0.103 0.313,-0.112C0.328,-0.121 0.339,-0.134 0.347,-0.151C0.354,-0.169 0.358,-0.19 0.359,-0.216L0.359,-0.727Z" style="fill:white;fill-rule:nonzero;"/>
        </g>
        <g transform="matrix(30,0,0,30,46.1972,48.6004)">
            <path d="M0.304,0.011C0.251,0.011 0.205,-0.001 0.165,-0.025C0.126,-0.048 0.096,-0.081 0.075,-0.123C0.053,-0.165 0.043,-0.214 0.043,-0.271C0.043,-0.327 0.053,-0.376 0.075,-0.419C0.096,-0.461 0.126,-0.494 0.165,-0.517C0.205,-0.541 0.251,-0.553 0.304,-0.553C0.357,-0.553 0.403,-0.541 0.442,-0.517C0.482,-0.494 0.512,-0.461 0.533,-0.419C0.555,-0.376 0.565,-0.327 0.565,-0.271C0.565,-0.214 0.555,-0.165 0.533,-0.123C0.512,-0.081 0.482,-0.048 0.442,-0.025C0.403,-0.001 0.357,0.011 0.304,0.011ZM0.305,-0.092C0.334,-0.092 0.358,-0.1 0.377,-0.116C0.397,-0.132 0.411,-0.154 0.421,-0.181C0.43,-0.208 0.435,-0.238 0.435,-0.271C0.435,-0.304 0.43,-0.335 0.421,-0.362C0.411,-0.389 0.397,-0.41 0.377,-0.426C0.358,-0.443 0.334,-0.451 0.305,-0.451C0.275,-0.451 0.251,-0.443 0.231,-0.426C0.211,-0.41 0.197,-0.389 0.187,-0.362C0.178,-0.335 0.173,-0.304 0.173,-0.271C0.173,-0.238 0.178,-0.208 0.187,-0.181C0.197,-0.154 0.211,-0.132 0.231,-0.116C0.251,-0.1 0.275,-0.092 0.305,-0.092Z" style="fill:white;fill-rule:nonzero;"/>
        </g>
        <g transform="matrix(30,0,0,30,64.4358,48.6004)">
            <path d="M0.066,-0L0.066,-0.545L0.195,-0.545L0.195,-0L0.066,-0ZM0.131,-0.623C0.11,-0.623 0.093,-0.63 0.078,-0.643C0.063,-0.657 0.056,-0.673 0.056,-0.692C0.056,-0.712 0.063,-0.728 0.078,-0.742C0.093,-0.756 0.11,-0.762 0.131,-0.762C0.151,-0.762 0.169,-0.756 0.183,-0.742C0.198,-0.728 0.205,-0.712 0.205,-0.692C0.205,-0.673 0.198,-0.657 0.183,-0.643C0.169,-0.63 0.151,-0.623 0.131,-0.623Z" style="fill:white;fill-rule:nonzero;"/>
        </g>
        <g transform="matrix(30,0,0,30,72.2554,48.6004)">
            <path d="M0.195,-0.32L0.195,-0L0.066,-0L0.066,-0.545L0.189,-0.545L0.189,-0.453L0.195,-0.453C0.208,-0.483 0.228,-0.508 0.256,-0.526C0.283,-0.544 0.317,-0.553 0.358,-0.553C0.396,-0.553 0.428,-0.545 0.456,-0.528C0.485,-0.512 0.506,-0.489 0.522,-0.458C0.537,-0.428 0.545,-0.391 0.545,-0.347L0.545,-0L0.416,-0L0.416,-0.327C0.416,-0.364 0.407,-0.392 0.388,-0.413C0.369,-0.434 0.343,-0.444 0.31,-0.444C0.288,-0.444 0.268,-0.439 0.25,-0.429C0.233,-0.419 0.219,-0.405 0.209,-0.387C0.2,-0.368 0.195,-0.346 0.195,-0.32Z" style="fill:white;fill-rule:nonzero;"/>
        </g>
        <g transform="matrix(30,0,0,30,97.994,48.6004)">
            <path d="M0.338,-0.545L0.338,-0.446L0.025,-0.446L0.025,-0.545L0.338,-0.545ZM0.102,-0.676L0.231,-0.676L0.231,-0.164C0.231,-0.147 0.233,-0.134 0.239,-0.124C0.244,-0.115 0.251,-0.109 0.26,-0.106C0.269,-0.103 0.278,-0.101 0.289,-0.101C0.297,-0.101 0.305,-0.101 0.311,-0.103C0.318,-0.104 0.323,-0.105 0.327,-0.106L0.348,-0.005C0.342,-0.003 0.332,-0 0.319,0.002C0.306,0.005 0.291,0.007 0.273,0.007C0.241,0.008 0.212,0.003 0.186,-0.007C0.16,-0.018 0.14,-0.035 0.124,-0.058C0.109,-0.08 0.102,-0.109 0.102,-0.143L0.102,-0.676Z" style="fill:white;fill-rule:nonzero;"/>
        </g>
        <g transform="matrix(30,0,0,30,109.734,48.6004)">
            <path d="M0.195,-0.32L0.195,-0L0.066,-0L0.066,-0.727L0.192,-0.727L0.192,-0.453L0.198,-0.453C0.211,-0.484 0.231,-0.508 0.258,-0.526C0.285,-0.544 0.319,-0.553 0.36,-0.553C0.398,-0.553 0.431,-0.545 0.46,-0.529C0.488,-0.513 0.51,-0.49 0.525,-0.459C0.541,-0.429 0.548,-0.391 0.548,-0.347L0.548,-0L0.42,-0L0.42,-0.327C0.42,-0.364 0.41,-0.393 0.392,-0.413C0.373,-0.434 0.346,-0.444 0.313,-0.444C0.29,-0.444 0.269,-0.439 0.252,-0.429C0.234,-0.419 0.22,-0.405 0.21,-0.387C0.2,-0.368 0.195,-0.346 0.195,-0.32Z" style="fill:white;fill-rule:nonzero;"/>
        </g>
        <g transform="matrix(30,0,0,30,128.122,48.6004)">
            <path d="M0.308,0.011C0.253,0.011 0.206,-0.001 0.166,-0.024C0.126,-0.046 0.096,-0.079 0.075,-0.121C0.053,-0.163 0.043,-0.212 0.043,-0.27C0.043,-0.326 0.053,-0.375 0.075,-0.417C0.096,-0.46 0.126,-0.493 0.165,-0.517C0.203,-0.541 0.249,-0.553 0.301,-0.553C0.334,-0.553 0.366,-0.547 0.396,-0.536C0.426,-0.526 0.453,-0.509 0.476,-0.487C0.499,-0.464 0.517,-0.435 0.53,-0.401C0.543,-0.366 0.55,-0.325 0.55,-0.277L0.55,-0.238L0.103,-0.238L0.103,-0.324L0.427,-0.324C0.427,-0.349 0.421,-0.371 0.411,-0.39C0.4,-0.409 0.386,-0.425 0.367,-0.436C0.349,-0.447 0.327,-0.452 0.303,-0.452C0.276,-0.452 0.253,-0.446 0.233,-0.433C0.213,-0.421 0.198,-0.404 0.187,-0.384C0.176,-0.363 0.17,-0.341 0.17,-0.316L0.17,-0.241C0.17,-0.209 0.176,-0.182 0.188,-0.159C0.199,-0.137 0.215,-0.119 0.236,-0.107C0.257,-0.095 0.281,-0.089 0.309,-0.089C0.328,-0.089 0.345,-0.092 0.36,-0.097C0.375,-0.103 0.388,-0.111 0.4,-0.121C0.411,-0.132 0.419,-0.144 0.425,-0.16L0.545,-0.146C0.537,-0.115 0.523,-0.087 0.502,-0.063C0.48,-0.04 0.453,-0.022 0.42,-0.009C0.388,0.004 0.35,0.011 0.308,0.011Z" style="fill:white;fill-rule:nonzero;"/>
        </g>
        <g transform="matrix(30,0,0,30,153.349,48.6004)">
            <path d="M0.072,-0L0.072,-0.727L0.2,-0.727L0.2,-0.455L0.206,-0.455C0.212,-0.469 0.222,-0.483 0.234,-0.498C0.246,-0.513 0.262,-0.526 0.283,-0.536C0.303,-0.547 0.33,-0.553 0.362,-0.553C0.404,-0.553 0.442,-0.542 0.476,-0.52C0.51,-0.499 0.537,-0.467 0.557,-0.426C0.577,-0.384 0.587,-0.333 0.587,-0.272C0.587,-0.212 0.577,-0.161 0.557,-0.119C0.538,-0.077 0.511,-0.045 0.477,-0.023C0.443,-0.001 0.405,0.01 0.362,0.01C0.331,0.01 0.305,0.004 0.284,-0.006C0.263,-0.016 0.247,-0.029 0.235,-0.044C0.222,-0.059 0.212,-0.073 0.206,-0.086L0.198,-0.086L0.198,-0L0.072,-0ZM0.198,-0.273C0.198,-0.237 0.203,-0.207 0.213,-0.18C0.223,-0.154 0.238,-0.133 0.257,-0.118C0.276,-0.103 0.299,-0.096 0.326,-0.096C0.354,-0.096 0.378,-0.104 0.397,-0.119C0.417,-0.134 0.431,-0.155 0.441,-0.182C0.451,-0.208 0.456,-0.239 0.456,-0.273C0.456,-0.307 0.451,-0.337 0.441,-0.363C0.431,-0.389 0.417,-0.41 0.398,-0.425C0.379,-0.44 0.355,-0.447 0.326,-0.447C0.299,-0.447 0.275,-0.44 0.256,-0.425C0.237,-0.411 0.222,-0.391 0.213,-0.365C0.203,-0.339 0.198,-0.308 0.198,-0.273Z" style="fill:white;fill-rule:nonzero;"/>
        </g>
        <g transform="matrix(30,0,0,30,172.259,48.6004)">
            <path d="M0.308,0.011C0.253,0.011 0.206,-0.001 0.166,-0.024C0.126,-0.046 0.096,-0.079 0.075,-0.121C0.053,-0.163 0.043,-0.212 0.043,-0.27C0.043,-0.326 0.053,-0.375 0.075,-0.417C0.096,-0.46 0.126,-0.493 0.165,-0.517C0.203,-0.541 0.249,-0.553 0.301,-0.553C0.334,-0.553 0.366,-0.547 0.396,-0.536C0.426,-0.526 0.453,-0.509 0.476,-0.487C0.499,-0.464 0.517,-0.435 0.53,-0.401C0.543,-0.366 0.55,-0.325 0.55,-0.277L0.55,-0.238L0.103,-0.238L0.103,-0.324L0.427,-0.324C0.427,-0.349 0.421,-0.371 0.411,-0.39C0.4,-0.409 0.386,-0.425 0.367,-0.436C0.349,-0.447 0.327,-0.452 0.303,-0.452C0.276,-0.452 0.253,-0.446 0.233,-0.433C0.213,-0.421 0.198,-0.404 0.187,-0.384C0.176,-0.363 0.17,-0.341 0.17,-0.316L0.17,-0.241C0.17,-0.209 0.176,-0.182 0.188,-0.159C0.199,-0.137 0.215,-0.119 0.236,-0.107C0.257,-0.095 0.281,-0.089 0.309,-0.089C0.328,-0.089 0.345,-0.092 0.36,-0.097C0.375,-0.103 0.388,-0.111 0.4,-0.121C0.411,-0.132 0.419,-0.144 0.425,-0.16L0.545,-0.146C0.537,-0.115 0.523,-0.087 0.502,-0.063C0.48,-0.04 0.453,-0.022 0.42,-0.009C0.388,0.004 0.35,0.011 0.308,0.011Z" style="fill:white;fill-rule:nonzero;"/>
        </g>
        <g transform="matrix(30,0,0,30,190.039,48.6004)">
            <path d="M0.338,-0.545L0.338,-0.446L0.025,-0.446L0.025,-0.545L0.338,-0.545ZM0.102,-0.676L0.231,-0.676L0.231,-0.164C0.231,-0.147 0.233,-0.134 0.239,-0.124C0.244,-0.115 0.251,-0.109 0.26,-0.106C0.269,-0.103 0.278,-0.101 0.289,-0.101C0.297,-0.101 0.305,-0.101 0.311,-0.103C0.318,-0.104 0.323,-0.105 0.327,-0.106L0.348,-0.005C0.342,-0.003 0.332,-0 0.319,0.002C0.306,0.005 0.291,0.007 0.273,0.007C0.241,0.008 0.212,0.003 0.186,-0.007C0.16,-0.018 0.14,-0.035 0.124,-0.058C0.109,-0.08 0.102,-0.109 0.102,-0.143L0.102,-0.676Z" style="fill:white;fill-rule:nonzero;"/>
        </g>
        <g transform="matrix(30,0,0,30,201.439,48.6004)">
            <path d="M0.223,0.011C0.188,0.011 0.157,0.005 0.13,-0.008C0.102,-0.02 0.08,-0.038 0.064,-0.063C0.048,-0.087 0.04,-0.117 0.04,-0.153C0.04,-0.184 0.046,-0.209 0.058,-0.229C0.069,-0.25 0.084,-0.266 0.104,-0.278C0.124,-0.29 0.146,-0.299 0.171,-0.305C0.195,-0.311 0.221,-0.316 0.248,-0.319C0.279,-0.322 0.305,-0.325 0.325,-0.328C0.345,-0.331 0.36,-0.335 0.369,-0.341C0.378,-0.347 0.382,-0.356 0.382,-0.368L0.382,-0.37C0.382,-0.397 0.375,-0.417 0.359,-0.432C0.343,-0.447 0.32,-0.454 0.29,-0.454C0.259,-0.454 0.234,-0.447 0.215,-0.434C0.197,-0.42 0.185,-0.404 0.178,-0.385L0.058,-0.402C0.068,-0.435 0.083,-0.463 0.105,-0.485C0.127,-0.508 0.154,-0.524 0.185,-0.536C0.217,-0.547 0.251,-0.553 0.289,-0.553C0.316,-0.553 0.342,-0.549 0.368,-0.543C0.394,-0.537 0.418,-0.527 0.439,-0.513C0.461,-0.499 0.478,-0.48 0.491,-0.456C0.504,-0.431 0.511,-0.401 0.511,-0.365L0.511,-0L0.387,-0L0.387,-0.075L0.383,-0.075C0.375,-0.06 0.364,-0.046 0.35,-0.032C0.336,-0.019 0.319,-0.009 0.297,-0.001C0.276,0.007 0.251,0.011 0.223,0.011ZM0.256,-0.083C0.282,-0.083 0.305,-0.089 0.324,-0.099C0.342,-0.109 0.357,-0.123 0.367,-0.14C0.378,-0.157 0.383,-0.176 0.383,-0.196L0.383,-0.26C0.379,-0.257 0.372,-0.254 0.362,-0.251C0.353,-0.248 0.342,-0.245 0.33,-0.243C0.318,-0.241 0.307,-0.239 0.295,-0.238C0.283,-0.236 0.273,-0.234 0.265,-0.233C0.246,-0.231 0.229,-0.226 0.213,-0.221C0.198,-0.215 0.186,-0.206 0.178,-0.196C0.169,-0.185 0.164,-0.172 0.164,-0.155C0.164,-0.132 0.173,-0.114 0.19,-0.102C0.208,-0.089 0.23,-0.083 0.256,-0.083Z" style="fill:white;fill-rule:nonzero;"/>
        </g>
    </g>
</svg>
